<?xml version="1.0" standalone="no"?>
<!DOCTYPE svg PUBLIC "-//W3C//DTD SVG 20010904//EN"
 "http://www.w3.org/TR/2001/REC-SVG-20010904/DTD/svg10.dtd">
<svg version="1.0" xmlns="http://www.w3.org/2000/svg"
 width="512.000000pt" height="512.000000pt" viewBox="0 0 512.000000 512.000000"
 preserveAspectRatio="xMidYMid meet">

<g transform="translate(0.000000,512.000000) scale(0.100000,-0.100000)"
fill="#000000" stroke="none">
<path d="M1900 4974 c-927 -79 -1691 -143 -1697 -144 -10 0 -13 -456 -13
-2244 l0 -2245 43 -6 c23 -3 778 -77 1677 -165 899 -88 1656 -163 1683 -166
l47 -6 0 2561 0 2561 -27 -1 c-16 -1 -786 -66 -1713 -145z m680 -2414 l0
-1450 -227 2 -226 3 -203 715 c-191 670 -270 967 -310 1153 -9 43 -18 77 -19
75 -2 -2 1 -109 6 -238 4 -129 11 -551 15 -937 l7 -703 -216 0 -217 0 0 1380
0 1380 222 -2 222 -3 148 -495 c129 -430 214 -724 363 -1250 l35 -125 -5 175
c-3 96 -10 276 -15 400 -5 124 -12 483 -16 798 l-7 572 221 0 222 0 0 -1450z"/>
<path d="M3870 4220 l0 -170 193 -2 192 -3 3 -187 2 -188 -195 0 -195 0 0
-250 0 -250 195 0 195 0 0 -185 0 -185 -195 0 -195 0 0 -305 0 -305 195 0 195
0 0 -185 0 -185 -195 0 -195 0 0 -690 0 -690 330 0 330 0 0 1350 0 1350 198 2
197 3 3 623 2 622 -530 0 -530 0 0 -170z"/>
<path d="M4640 2495 l0 -495 140 0 140 0 -2 493 -3 492 -137 3 -138 3 0 -496z"/>
<path d="M4640 1355 l0 -495 140 0 140 0 0 495 0 495 -140 0 -140 0 0 -495z"/>
</g>
</svg>
